<?xml version="1.0" encoding="UTF-8" standalone="no"?>
<!-- Generator: Adobe Illustrator 14.0.0, SVG Export Plug-In . SVG Version: 6.00 Build 43363)  -->

<svg
   version="1.1"
   id="Layer_1"
   x="0px"
   y="0px"
   width="364.707px"
   height="364.707px"
   viewBox="0 0 364.707 364.707"
   enable-background="new 0 0 364.707 364.707"
   xml:space="preserve"
   sodipodi:docname="lambda.svg"
   inkscape:version="1.3 (1:1.3+202307231459+0e150ed6c4)"
   xmlns:inkscape="http://www.inkscape.org/namespaces/inkscape"
   xmlns:sodipodi="http://sodipodi.sourceforge.net/DTD/sodipodi-0.dtd"
   xmlns="http://www.w3.org/2000/svg"
   xmlns:svg="http://www.w3.org/2000/svg"><defs
   id="defs365" /><sodipodi:namedview
   id="namedview363"
   pagecolor="#ffffff"
   bordercolor="#666666"
   borderopacity="1.0"
   inkscape:showpageshadow="2"
   inkscape:pageopacity="0.0"
   inkscape:pagecheckerboard="0"
   inkscape:deskcolor="#d1d1d1"
   showgrid="false"
   inkscape:zoom="2.3361219"
   inkscape:cx="173.36424"
   inkscape:cy="187.70425"
   inkscape:window-width="1920"
   inkscape:window-height="1055"
   inkscape:window-x="0"
   inkscape:window-y="0"
   inkscape:window-maximized="1"
   inkscape:current-layer="Layer_1" />&#10;&#10;&#10;<g
   id="g3"><path
     id="path360"
     style="display:inline;fill:#f37b21;fill-opacity:1;stroke:none;stroke-opacity:1"
     d="M 181.50195 10 C 86.779938 10 10 86.781495 10 181.5 C 10 276.23068 86.782148 353 181.50195 353 C 276.22175 353 353 276.22957 353 181.5 C 353 86.781495 276.22064 10 181.50195 10 z M 182.35352 44.470703 A 137.76065 137.88208 0 0 1 320.11328 182.35352 A 137.76065 137.88208 0 0 1 182.35352 320.23633 A 137.76065 137.88208 0 0 1 44.59375 182.35352 A 137.76065 137.88208 0 0 1 182.35352 44.470703 z " /><path
     fill="#f37b21"
     d="m 223.864,272.729 -38.608,-97.848 -56.603,89.184 H 93.166 l 79.052,-127.654 -8.875,-25.229 H 132.562 V 81.12 h 52.691 l 60.521,153.899 26.608,-8.668 8.867,29.813 z"
     id="path358"
     style="display:inline" /></g></svg>
