<?xml version="1.0" encoding="UTF-8" standalone="no"?>
<!-- Created with Inkscape (http://www.inkscape.org/) -->

<svg
   width="210mm"
   height="297mm"
   viewBox="0 0 210 297"
   version="1.1"
   id="svg1"
   inkscape:version="1.3 (1:1.3+202307231459+0e150ed6c4)"
   sodipodi:docname="square-circle-start.svg"
   xmlns:inkscape="http://www.inkscape.org/namespaces/inkscape"
   xmlns:sodipodi="http://sodipodi.sourceforge.net/DTD/sodipodi-0.dtd"
   xmlns="http://www.w3.org/2000/svg"
   xmlns:svg="http://www.w3.org/2000/svg">
  <sodipodi:namedview
     id="namedview1"
     pagecolor="#ffffff"
     bordercolor="#666666"
     borderopacity="1.0"
     inkscape:showpageshadow="2"
     inkscape:pageopacity="0.0"
     inkscape:pagecheckerboard="0"
     inkscape:deskcolor="#d1d1d1"
     inkscape:document-units="mm"
     inkscape:zoom="0.78305976"
     inkscape:cx="396.52146"
     inkscape:cy="561.25984"
     inkscape:window-width="1920"
     inkscape:window-height="1055"
     inkscape:window-x="0"
     inkscape:window-y="0"
     inkscape:window-maximized="1"
     inkscape:current-layer="layer1" />
  <defs
     id="defs1" />
  <g
     inkscape:label="Layer 1"
     inkscape:groupmode="layer"
     id="layer1">
    <path
       id="path3"
       style="fill:none;stroke:#000000;stroke-width:2"
       inkscape:transform-center-x="-1.262968"
       inkscape:transform-center-y="-3.6176048"
       transform="matrix(1.0833387,0,0,1.0680898,29.999182,-90.859075)"
       d="m 85.654065,223.98247 -26.507118,-16.76604 -28.838754,12.331 7.7543,-30.39075 -20.639147,-23.6168 31.299539,-2.01648 16.08306,-26.92699 11.589878,29.1445 30.579027,6.97501 -24.136602,20.02877 z M 79.276249,185.10973 A 18.91974,19.189856 0 0 1 60.356504,204.29958 18.91974,19.189856 0 0 1 41.436765,185.10973 18.91974,19.189856 0 0 1 60.356504,165.91987 18.91974,19.189856 0 0 1 79.276249,185.10973 Z M 12.52154,133.12644 h 98.36192 v 93.9359 H 12.52154 Z" />
  </g>
</svg>
